<svg xmlns="http://www.w3.org/2000/svg" width="980" height="460" viewBox="0 0 980 460">
<rect width="100%" height="100%" fill="#ffffff"/>
<text x="40" y="42" font-family="Arial, sans-serif" font-size="24" font-weight="700" fill="#102a43">Cenario 1 - Operacao normal</text>
<text x="40" y="62" font-family="Arial, sans-serif" font-size="12" fill="#486581">Comparacao direta entre without-twin e with-twin.</text>
<rect x="730" y="22" width="18" height="18" fill="#b0bec5"/>
<text x="756" y="36" font-family="Arial, sans-serif" font-size="13" fill="#102a43">without-twin</text>
<rect x="860" y="22" width="18" height="18" fill="#1565c0"/>
<text x="886" y="36" font-family="Arial, sans-serif" font-size="13" fill="#102a43">with-twin</text>
<text x="40" y="88" font-family="Arial, sans-serif" font-size="14" font-weight="700" fill="#102a43">Throughput (req/s)</text>
<line x1="310" y1="78" x2="630" y2="78" stroke="#d9e2ec" stroke-width="1"/>
<rect x="310" y="88" width="305.45" height="20" fill="#b0bec5"/>
<rect x="310" y="116" width="320.00" height="20" fill="#1565c0"/>
<text x="298" y="103" text-anchor="end" font-family="Arial, sans-serif" font-size="12" fill="#486581">without</text>
<text x="298" y="131" text-anchor="end" font-family="Arial, sans-serif" font-size="12" fill="#486581">with</text>
<text x="642" y="103" font-family="Arial, sans-serif" font-size="12" fill="#102a43">760.18</text>
<text x="642" y="131" font-family="Arial, sans-serif" font-size="12" fill="#102a43">796.39</text>
<text x="40" y="178" font-family="Arial, sans-serif" font-size="14" font-weight="700" fill="#102a43">Latencia p95 HTTP (ms)</text>
<line x1="310" y1="168" x2="630" y2="168" stroke="#d9e2ec" stroke-width="1"/>
<rect x="310" y="178" width="320.00" height="20" fill="#b0bec5"/>
<rect x="310" y="206" width="298.57" height="20" fill="#1565c0"/>
<text x="298" y="193" text-anchor="end" font-family="Arial, sans-serif" font-size="12" fill="#486581">without</text>
<text x="298" y="221" text-anchor="end" font-family="Arial, sans-serif" font-size="12" fill="#486581">with</text>
<text x="642" y="193" font-family="Arial, sans-serif" font-size="12" fill="#102a43">13.05</text>
<text x="642" y="221" font-family="Arial, sans-serif" font-size="12" fill="#102a43">12.17</text>
<text x="40" y="268" font-family="Arial, sans-serif" font-size="14" font-weight="700" fill="#102a43">Latencia p95 API Gateway (ms)</text>
<line x1="310" y1="258" x2="630" y2="258" stroke="#d9e2ec" stroke-width="1"/>
<rect x="310" y="268" width="320.00" height="20" fill="#b0bec5"/>
<rect x="310" y="296" width="305.37" height="20" fill="#1565c0"/>
<text x="298" y="283" text-anchor="end" font-family="Arial, sans-serif" font-size="12" fill="#486581">without</text>
<text x="298" y="311" text-anchor="end" font-family="Arial, sans-serif" font-size="12" fill="#486581">with</text>
<text x="642" y="283" font-family="Arial, sans-serif" font-size="12" fill="#102a43">11.47</text>
<text x="642" y="311" font-family="Arial, sans-serif" font-size="12" fill="#102a43">10.94</text>
<text x="40" y="358" font-family="Arial, sans-serif" font-size="14" font-weight="700" fill="#102a43">Backlog maximo (itens)</text>
<line x1="310" y1="348" x2="630" y2="348" stroke="#d9e2ec" stroke-width="1"/>
<rect x="310" y="358" width="0.00" height="20" fill="#b0bec5"/>
<rect x="310" y="386" width="0.00" height="20" fill="#1565c0"/>
<text x="298" y="373" text-anchor="end" font-family="Arial, sans-serif" font-size="12" fill="#486581">without</text>
<text x="298" y="401" text-anchor="end" font-family="Arial, sans-serif" font-size="12" fill="#486581">with</text>
<text x="642" y="373" font-family="Arial, sans-serif" font-size="12" fill="#102a43">0.0000</text>
<text x="642" y="401" font-family="Arial, sans-serif" font-size="12" fill="#102a43">0.0000</text>
</svg>